<svg width="80" height="80" viewBox="0 0 80 80" fill="none" xmlns="http://www.w3.org/2000/svg">
<rect x="0.5" y="0.5" width="79" height="79" rx="39.5" fill="#171717"/>
<rect x="0.5" y="0.5" width="79" height="79" rx="39.5" stroke="#3ED5DD"/>
<path d="M39.8471 43.7701C41.8794 43.7701 43.527 42.1225 43.527 40.0902C43.527 38.0579 41.8794 36.4104 39.8471 36.4104C37.8148 36.4104 36.1673 38.0579 36.1673 40.0902C36.1673 42.1225 37.8148 43.7701 39.8471 43.7701Z" fill="#3ED5DD"/>
<path d="M39.8471 41.478C40.6136 41.478 41.235 40.8567 41.235 40.0902C41.235 39.3237 40.6136 38.7024 39.8471 38.7024C39.0807 38.7024 38.4593 39.3237 38.4593 40.0902C38.4593 40.8567 39.0807 41.478 39.8471 41.478Z" fill="#171717"/>
<path d="M20.8083 51.0974C21.5866 51.0974 22.2176 50.4664 22.2176 49.6881C22.2176 48.9099 21.5866 48.2789 20.8083 48.2789C20.0301 48.2789 19.3991 48.9099 19.3991 49.6881C19.3991 50.4664 20.0301 51.0974 20.8083 51.0974Z" fill="#3ED5DD"/>
<path d="M60.4918 40.0902C61.0554 40.0902 61.5124 39.6333 61.5124 39.0697C61.5124 38.5061 61.0554 38.0492 60.4918 38.0492C59.9282 38.0492 59.4713 38.5061 59.4713 39.0697C59.4713 39.6333 59.9282 40.0902 60.4918 40.0902Z" fill="#3ED5DD"/>
<path d="M31.2483 20.9273C31.812 20.9273 32.2689 20.4704 32.2689 19.9068C32.2689 19.3431 31.812 18.8862 31.2483 18.8862C30.6847 18.8862 30.2278 19.3431 30.2278 19.9068C30.2278 20.4704 30.6847 20.9273 31.2483 20.9273Z" fill="#3ED5DD"/>
<path d="M36.1475 61.1138C36.7111 61.1138 37.168 60.6569 37.168 60.0933C37.168 59.5297 36.7111 59.0728 36.1475 59.0728C35.5839 59.0728 35.127 59.5297 35.127 60.0933C35.127 60.6569 35.5839 61.1138 36.1475 61.1138Z" fill="#3ED5DD"/>
<path d="M45.8843 45.6989C50.8917 43.9456 54.3758 40.6556 54.5724 40.467C54.6751 40.3686 54.7331 40.2326 54.7331 40.0905C54.7331 39.9483 54.6751 39.8123 54.5724 39.7139C54.3768 39.5262 50.927 36.2681 45.96 34.5083L49.2345 31.2339C49.3669 31.1014 49.3669 30.8869 49.2345 30.7544C49.1021 30.622 48.8873 30.622 48.7548 30.7544L45.2614 34.2479C45.2919 34.2609 45.3156 34.285 45.3448 34.3007C43.6509 33.7582 41.7981 33.4008 39.8473 33.4008C37.9361 33.4008 36.1195 33.7444 34.4538 34.2684L30.9398 30.7544C30.8073 30.622 30.5926 30.622 30.4601 30.7544C30.3277 30.8869 30.3277 31.1014 30.4601 31.2339L33.7346 34.5083C28.7676 36.2681 25.318 39.5262 25.1223 39.7139C25.0197 39.8123 24.9617 39.9483 24.9617 40.0905C24.9617 40.2326 25.0197 40.3686 25.1223 40.467C25.319 40.6556 28.8029 43.9455 33.8104 45.6988L30.4601 49.0492C30.3277 49.1817 30.3277 49.3962 30.4601 49.5286C30.5925 49.6611 30.8073 49.6611 30.9398 49.5286L34.5317 45.9367C36.1762 46.4469 37.9658 46.7801 39.8473 46.7801C41.7288 46.7801 43.5185 46.4469 45.1629 45.9367L48.7548 49.5286C48.8873 49.6611 49.1021 49.6611 49.2345 49.5286C49.3669 49.3962 49.3669 49.1817 49.2345 49.0492L45.8843 45.6989ZM44.0035 45.1602C45.4695 43.9563 46.4066 42.131 46.4066 40.0905C46.4066 38.0451 45.4647 36.2165 43.9928 35.0126C48.6011 36.2253 52.2289 39.0641 53.4268 40.0905C52.2301 41.1159 48.6061 43.9463 44.0035 45.1602ZM39.8473 34.3139C43.0326 34.3139 45.624 36.9052 45.624 40.0905C45.624 43.2757 43.0326 45.867 39.8473 45.867C36.6621 45.867 34.0707 43.2757 34.0707 40.0905C34.0707 36.9052 36.6621 34.3139 39.8473 34.3139ZM35.711 35.0059C34.234 36.2096 33.2881 38.041 33.2881 40.0905C33.2881 42.1381 34.2322 43.9682 35.7069 45.172C31.0948 43.9613 27.4663 41.1173 26.268 40.0905C27.4666 39.0632 31.0975 36.2173 35.711 35.0059ZM23.4125 29.5156H29.3217C29.509 29.5156 29.6608 29.3637 29.6608 29.1765V23.2674C29.6608 23.0802 29.509 22.9283 29.3217 22.9283H23.4125C23.2253 22.9283 23.0735 23.0802 23.0735 23.2674V29.1765C23.0735 29.3637 23.2253 29.5156 23.4125 29.5156ZM23.7516 23.6065H28.9826V28.8374H23.7516V23.6065ZM56.6957 22.9283H50.7865C50.5993 22.9283 50.4474 23.0802 50.4474 23.2674V29.1765C50.4474 29.3637 50.5993 29.5156 50.7865 29.5156H56.6957C56.8829 29.5156 57.0348 29.3637 57.0348 29.1765V23.2674C57.0348 23.0802 56.8829 22.9283 56.6957 22.9283ZM56.3566 28.8374H51.1256V23.6065H56.3566V28.8374ZM29.3217 50.4103H23.4125C23.2253 50.4103 23.0735 50.5622 23.0735 50.7494V56.6587C23.0735 56.846 23.2253 56.9978 23.4125 56.9978H29.3217C29.509 56.9978 29.6608 56.846 29.6608 56.6587V50.7494C29.6608 50.5622 29.509 50.4103 29.3217 50.4103ZM28.9826 56.3196H23.7516V51.0885H28.9826L28.9826 56.3196ZM56.6957 50.4103H50.7865C50.5993 50.4103 50.4474 50.5622 50.4474 50.7494V56.6587C50.4474 56.846 50.5993 56.9978 50.7865 56.9978H56.6957C56.8829 56.9978 57.0348 56.846 57.0348 56.6587V50.7494C57.0348 50.5622 56.8829 50.4103 56.6957 50.4103ZM56.3566 56.3196H51.1256V51.0885H56.3566V56.3196Z" fill="#3ED5DD"/>
<path d="M39.6103 31.5311C39.6765 31.5973 39.7631 31.6302 39.8499 31.6302C39.9366 31.6302 40.0235 31.5971 40.0897 31.5308L42.3907 29.2299C42.523 29.0974 42.523 28.8829 42.3907 28.7504C42.2582 28.618 42.0434 28.618 41.911 28.7504L39.8496 30.8116L37.7834 28.7502C37.6507 28.6174 37.4359 28.6179 37.3037 28.7507C37.1715 28.8832 37.1717 29.0979 37.3042 29.2301L39.6103 31.5311ZM40.0844 48.6496C39.9519 48.5172 39.7374 48.5174 39.6049 48.6499L37.304 50.9508C37.1716 51.0833 37.1716 51.2978 37.304 51.4303C37.4364 51.5628 37.6512 51.5628 37.7837 51.4303L39.845 49.3691L41.9112 51.4305C42.0435 51.5629 42.2588 51.5627 42.3909 51.43C42.5231 51.2976 42.5229 51.0828 42.3904 50.9506L40.0844 48.6496Z" fill="#3ED5DD"/>
</svg>
