<svg width="129" height="36" viewBox="0 0 129 36" fill="none" xmlns="http://www.w3.org/2000/svg">
	<path
		d="M10.742 27.418C6.942 27.418 4.358 26.3667 2.99 24.264C1.64733 22.1613 0.976 18.7033 0.976 13.89C0.976 9.07667 1.66 5.65667 3.028 3.63C4.396 1.578 6.96733 0.551998 10.742 0.551998C12.9967 0.551998 15.4793 0.868666 18.19 1.502L18.038 4.922C15.758 4.51667 13.478 4.314 11.198 4.314C8.918 4.314 7.37267 4.998 6.562 6.366C5.75133 7.70867 5.346 10.2547 5.346 14.004C5.346 17.728 5.73867 20.274 6.524 21.642C7.30933 22.9847 8.842 23.656 11.122 23.656C13.402 23.656 15.7073 23.466 18.038 23.086L18.152 26.582C15.5427 27.1393 13.0727 27.418 10.742 27.418ZM20.0959 8H24.1619L28.1899 23.466H29.2159L33.2439 8H37.3479L30.1279 35.17H26.0619L28.3419 27H25.0739L20.0959 8ZM49.4011 7.582C52.0104 7.582 53.8851 8.31667 55.0251 9.786C56.1904 11.23 56.7731 13.8013 56.7731 17.5C56.7731 21.1987 56.0891 23.7827 54.7211 25.252C53.3531 26.696 50.9464 27.418 47.5011 27.418C46.3104 27.418 44.4231 27.304 41.8391 27.076L40.5471 26.962V0.0959998H44.6511V8.722C46.3991 7.962 47.9824 7.582 49.4011 7.582ZM47.5011 23.732C49.5277 23.732 50.8704 23.2633 51.5291 22.326C52.2131 21.3633 52.5551 19.742 52.5551 17.462C52.5551 15.182 52.2637 13.586 51.6811 12.674C51.1237 11.7367 50.1991 11.268 48.9071 11.268C47.6911 11.268 46.4751 11.458 45.2591 11.838L44.6511 12.028V23.58C46.0444 23.6813 46.9944 23.732 47.5011 23.732ZM74.4481 23.58L75.5121 23.466L75.5881 26.544C72.7001 27.1267 70.1414 27.418 67.9121 27.418C65.1001 27.418 63.0734 26.6453 61.8321 25.1C60.6161 23.5547 60.0081 21.0847 60.0081 17.69C60.0081 10.9513 62.7568 7.582 68.2541 7.582C73.5741 7.582 76.2341 10.4827 76.2341 16.284L75.9681 19.248H64.1881C64.2134 20.8187 64.5554 21.9713 65.2141 22.706C65.8728 23.4407 67.1014 23.808 68.9001 23.808C70.6988 23.808 72.5481 23.732 74.4481 23.58ZM72.1681 16.056C72.1681 14.1813 71.8641 12.8767 71.2561 12.142C70.6734 11.382 69.6728 11.002 68.2541 11.002C66.8354 11.002 65.7968 11.3947 65.1381 12.18C64.5048 12.9653 64.1754 14.2573 64.1501 16.056H72.1681ZM80.217 27V8H84.321V10.28C86.4743 8.88667 88.6277 7.98733 90.781 7.582V11.724C88.6023 12.1547 86.7403 12.712 85.195 13.396L84.359 13.738V27H80.217Z"
		fill="white" />
	<path
		d="M94.4415 27V0.969998H110.857V4.656H98.6595V12.028H108.577V15.676H98.6595V23.276H110.857V27H94.4415ZM114.001 11.686V8H128.099V11.686L118.979 23.314H128.099V27H114.001V23.314L123.159 11.686H114.001Z"
		fill="#3ED5DD" />
</svg>
